<svg xmlns="http://www.w3.org/2000/svg" width="16.64" height="12.482" viewBox="0 0 16.64 12.482">
  <path id="Icon_ionic-logo-youtube" data-name="Icon ionic-logo-youtube" d="M16.531,7.256a2.527,2.527,0,0,0-2.405-2.639c-1.8-.085-3.637-.117-5.513-.117H8.028c-1.872,0-3.712.033-5.513.117a2.532,2.532,0,0,0-2.4,2.646C.032,8.42,0,9.577,0,10.734s.033,2.314.111,3.475a2.535,2.535,0,0,0,2.4,2.649c1.892.088,3.832.127,5.805.124s3.91-.033,5.805-.124a2.536,2.536,0,0,0,2.405-2.649c.078-1.16.114-2.317.111-3.478S16.609,8.417,16.531,7.256Zm-9.8,6.666V7.536l4.713,3.192Z" transform="translate(0 -4.5)" fill="#e0203d"/>
</svg>
