<svg xmlns="http://www.w3.org/2000/svg" width="15.318" height="15.318" viewBox="0 0 15.318 15.318">
  <path id="Icon_awesome-facebook-square" data-name="Icon awesome-facebook-square" d="M13.677,2.25H1.641A1.641,1.641,0,0,0,0,3.891V15.926a1.641,1.641,0,0,0,1.641,1.641H6.334V12.36H4.18V9.909H6.334V8.041a2.992,2.992,0,0,1,3.2-3.3,13.05,13.05,0,0,1,1.9.165V6.993H10.366A1.226,1.226,0,0,0,8.984,8.317V9.909h2.352L10.96,12.36H8.984v5.208h4.693a1.641,1.641,0,0,0,1.641-1.641V3.891A1.641,1.641,0,0,0,13.677,2.25Z" transform="translate(0 -2.25)" fill="#0178b5"/>
</svg>
