<svg xmlns="http://www.w3.org/2000/svg" width="15.538" height="12.619" viewBox="0 0 15.538 12.619">
  <path id="Icon_awesome-twitter" data-name="Icon awesome-twitter" d="M13.941,6.526c.01.138.01.276.01.414A9,9,0,0,1,4.89,16,9,9,0,0,1,0,14.571a6.588,6.588,0,0,0,.769.039,6.378,6.378,0,0,0,3.953-1.361,3.19,3.19,0,0,1-2.977-2.208,4.016,4.016,0,0,0,.6.049,3.368,3.368,0,0,0,.838-.108A3.185,3.185,0,0,1,.631,7.857V7.817a3.207,3.207,0,0,0,1.439.4,3.189,3.189,0,0,1-.986-4.259A9.052,9.052,0,0,0,7.651,7.295a3.6,3.6,0,0,1-.079-.73,3.188,3.188,0,0,1,5.511-2.179A6.27,6.27,0,0,0,15.1,3.617a3.176,3.176,0,0,1-1.4,1.755,6.384,6.384,0,0,0,1.834-.493,6.845,6.845,0,0,1-1.6,1.646Z" transform="translate(0 -3.381)" fill="#27d1f0"/>
</svg>
