<svg xmlns="http://www.w3.org/2000/svg" width="15.4" height="15.397" viewBox="0 0 15.4 15.397">
  <path id="Icon_awesome-instagram" data-name="Icon awesome-instagram" d="M7.7,5.988a3.947,3.947,0,1,0,3.948,3.947A3.941,3.941,0,0,0,7.7,5.988Zm0,6.514a2.566,2.566,0,1,1,2.566-2.566A2.571,2.571,0,0,1,7.7,12.5Zm5.03-6.675a.921.921,0,1,1-.921-.921A.919.919,0,0,1,12.726,5.827Zm2.615.934A4.556,4.556,0,0,0,14.1,3.535a4.587,4.587,0,0,0-3.226-1.244C9.6,2.22,5.79,2.22,4.519,2.292a4.58,4.58,0,0,0-3.226,1.24A4.571,4.571,0,0,0,.049,6.758c-.072,1.271-.072,5.081,0,6.352a4.556,4.556,0,0,0,1.244,3.226A4.592,4.592,0,0,0,4.519,17.58c1.271.072,5.081.072,6.353,0A4.557,4.557,0,0,0,14.1,16.336a4.586,4.586,0,0,0,1.244-3.226c.072-1.271.072-5.078,0-6.349ZM13.7,14.474a2.6,2.6,0,0,1-1.464,1.464,16.969,16.969,0,0,1-4.539.309,17.1,17.1,0,0,1-4.539-.309,2.6,2.6,0,0,1-1.464-1.464,16.968,16.968,0,0,1-.309-4.538A17.1,17.1,0,0,1,1.695,5.4,2.6,2.6,0,0,1,3.158,3.934,16.969,16.969,0,0,1,7.7,3.625a17.1,17.1,0,0,1,4.539.309A2.6,2.6,0,0,1,13.7,5.4a16.968,16.968,0,0,1,.309,4.538A16.958,16.958,0,0,1,13.7,14.474Z" transform="translate(0.005 -2.238)" fill="#584876"/>
</svg>
