<svg xmlns="http://www.w3.org/2000/svg" id="close" width="31" height="31" viewBox="0 0 31 31">
    <defs>
        <style>
            .cls-1{fill:#df1c4c}
        </style>
    </defs>
    <g id="Group_405">
        <g id="Group_404">
            <path id="Path_569" d="M15.5 0A15.5 15.5 0 1 0 31 15.5 15.518 15.518 0 0 0 15.5 0zm0 29.708A14.208 14.208 0 1 1 29.708 15.5 14.224 14.224 0 0 1 15.5 29.708z" class="cls-1"/>
            <path id="Path_570" d="M162.061 149.522a.646.646 0 0 0-.913 0l-5.356 5.356-5.356-5.356a.646.646 0 0 0-.913.913l5.356 5.356-5.356 5.356a.646.646 0 1 0 .913.913l5.356-5.356 5.356 5.356a.646.646 0 1 0 .913-.913l-5.356-5.356 5.356-5.356a.646.646 0 0 0 0-.913z" class="cls-1" transform="translate(-140.292 -140.291)"/>
        </g>
    </g>
</svg>
