<svg id="Group_214" data-name="Group 214" xmlns="http://www.w3.org/2000/svg" xmlns:xlink="http://www.w3.org/1999/xlink" width="6" height="9.999" viewBox="0 0 6 9.999">
  <defs>
    <clipPath id="clip-path">
      <path id="_Icon_小olor" data-name=" Icon 小olor" d="M1,10A1,1,0,0,1,.293,8.292L3.6,4.987.418,1.694A1,1,0,0,1,1.857.3l3.862,4a1,1,0,0,1-.012,1.4l-4,4A1,1,0,0,1,1,10" transform="translate(0 0)" fill="#222b45"/>
    </clipPath>
  </defs>
  <path id="_Icon_小olor-2" data-name=" Icon 小olor" d="M1,10A1,1,0,0,1,.293,8.292L3.6,4.987.418,1.694A1,1,0,0,1,1.857.3l3.862,4a1,1,0,0,1-.012,1.4l-4,4A1,1,0,0,1,1,10" transform="translate(0 0)" fill="#222b45"/>
</svg>
