<svg id="Group_201" data-name="Group 201" xmlns="http://www.w3.org/2000/svg" xmlns:xlink="http://www.w3.org/1999/xlink" width="6" height="10" viewBox="0 0 6 10">
  <defs>
    <clipPath id="clip-path">
      <path id="_Icon_小olor" data-name=" Icon 小olor" d="M4.862,10A1,1,0,0,1,4.143,9.7L.28,5.7a1,1,0,0,1,.013-1.4l4-4A1,1,0,0,1,5.707,1.707L2.4,5.012,5.581,8.305A1,1,0,0,1,4.862,10" fill="#222b45"/>
    </clipPath>
  </defs>
  <path id="_Icon_小olor-2" data-name=" Icon 小olor" d="M4.862,10A1,1,0,0,1,4.143,9.7L.28,5.7a1,1,0,0,1,.013-1.4l4-4A1,1,0,0,1,5.707,1.707L2.4,5.012,5.581,8.305A1,1,0,0,1,4.862,10" fill="#222b45"/>
</svg>
