<svg xmlns="http://www.w3.org/2000/svg" width="56.942" height="56.939" viewBox="0 0 56.942 56.939">
  <g id="help" transform="translate(-2.079 -2.081)">
    <path id="Path_22" data-name="Path 22" d="M52.505,67.528a.814.814,0,0,1-.375-1.538c.636-.326,1.293-.707,2.01-1.156a.816.816,0,1,1,.865,1.384c-.755.472-1.451.872-2.127,1.222A.814.814,0,0,1,52.505,67.528Z" transform="translate(-9.21 -11.626)" fill="#f6fafc"/>
    <path id="Path_23" data-name="Path 23" d="M30.517,59.021A28.469,28.469,0,1,1,55.608,44.066a.815.815,0,1,1-1.433-.774,26.882,26.882,0,1,0-23.657,14.1,26.554,26.554,0,0,0,6.993-.924.815.815,0,0,1,.428,1.572,28.165,28.165,0,0,1-7.421.981Z" fill="#f6fafc"/>
    <path id="Path_24" data-name="Path 24" d="M60.534,61.582a.814.814,0,0,1-.57-1.4c.582-.57,1.13-1.147,1.629-1.729a.814.814,0,0,1,1.238,1.059c-.529.619-1.111,1.237-1.729,1.838A.814.814,0,0,1,60.534,61.582Z" transform="translate(-10.7 -10.412)" fill="#f6fafc"/>
    <path id="Path_25" data-name="Path 25" d="M31.872,54.369a22.5,22.5,0,1,1,22.5-22.5,22.5,22.5,0,0,1-22.5,22.5Zm0-43.365A20.868,20.868,0,1,0,52.74,31.872,20.868,20.868,0,0,0,31.872,11Z" transform="translate(-1.354 -1.354)" fill="#f6fafc"/>
    <path id="Path_26" data-name="Path 26" d="M36.35,50.045a2.85,2.85,0,0,1-2.85-2.85V33.35a2.85,2.85,0,0,1,5.7,0V47.195a2.85,2.85,0,0,1-2.85,2.85Zm0-17.916a1.222,1.222,0,0,0-1.222,1.222V47.195a1.222,1.222,0,1,0,2.443,0V33.35A1.222,1.222,0,0,0,36.35,32.129Z" transform="translate(-5.833 -5.275)" fill="#f6fafc"/>
    <path id="Path_27" data-name="Path 27" d="M36.257,26.015a3.257,3.257,0,1,1,3.257-3.257A3.257,3.257,0,0,1,36.257,26.015Zm0-4.886a1.629,1.629,0,1,0,1.629,1.629A1.629,1.629,0,0,0,36.257,21.129Z" transform="translate(-5.74 -3.233)" fill="#f6fafc"/>
  </g>
</svg>
