<svg xmlns="http://www.w3.org/2000/svg" width="26.874" height="19.195" viewBox="0 0 26.874 19.195">
    <path fill="#0178b5" d="M24.8 5.784a1.067 1.067 0 0 0-1.1-1.1h-5.638a1.1 1.1 0 0 0-.684.228 1.066 1.066 0 0 0-.4.612l-.576 2.352H.234l-.169-.5A.993.993 0 0 0-.966 6.6a.739.739 0 0 0-.312.048 1.033 1.033 0 0 0-.576.384 1.048 1.048 0 0 0-.216.648 1.341 1.341 0 0 0 .048.312l2.831 9.43a1.032 1.032 0 0 0 .384.578 1.054 1.054 0 0 0 .648.216h13.413a1.066 1.066 0 0 0 .684-.239 1.121 1.121 0 0 0 .4-.6l2.591-10.51H23.7a1.085 1.085 0 0 0 .78-.312 1.024 1.024 0 0 0 .32-.771zm-8.926 4.271l-1.484 5.951H2.657l-.047-.216-1.729-5.734h15zM14.87 21.668a2.106 2.106 0 0 0-.66-1.56 2.167 2.167 0 0 0-1.572-.648 2.207 2.207 0 0 0 0 4.414 2.166 2.166 0 0 0 1.572-.647 2.108 2.108 0 0 0 .66-1.559zm-1.56-9.742H9.328v2.207h3.5zm-5.878 2.208l-.024-2.207H3.521l.579 2.207zm-.888 7.534a2.106 2.106 0 0 0-.661-1.56 2.165 2.165 0 0 0-1.572-.648 2.126 2.126 0 0 0-1.56.648 2.2 2.2 0 0 0 0 3.119 2.126 2.126 0 0 0 1.56.647 2.165 2.165 0 0 0 1.572-.647 2.106 2.106 0 0 0 .661-1.559z" transform="translate(2.07 -4.68)"/>
</svg>
