<svg xmlns="http://www.w3.org/2000/svg" width="18.737" height="24.982" viewBox="0 0 18.737 24.982">
  <path id="Icon_awesome-file-pdf" data-name="Icon awesome-file-pdf" d="M8.876,12.5a4.708,4.708,0,0,1-.1-2.288C9.188,10.208,9.149,12.008,8.876,12.5Zm-.083,2.3a22.515,22.515,0,0,1-1.386,3.059,17.967,17.967,0,0,1,3.069-1.069A6.321,6.321,0,0,1,8.793,14.8ZM4.2,20.889c0,.039.644-.263,1.7-1.962A6.744,6.744,0,0,0,4.2,20.889ZM12.1,7.807h6.636v16a1.168,1.168,0,0,1-1.171,1.171H1.171A1.168,1.168,0,0,1,0,23.811V1.171A1.168,1.168,0,0,1,1.171,0H10.93V6.636A1.174,1.174,0,0,0,12.1,7.807Zm-.39,8.383a4.9,4.9,0,0,1-2.083-2.625,7.013,7.013,0,0,0,.3-3.133A1.222,1.222,0,0,0,7.6,10.1a8.113,8.113,0,0,0,.4,3.757A45.819,45.819,0,0,1,6,18.044s0,0-.01,0C4.67,18.727,2.4,20.22,3.333,21.367a1.516,1.516,0,0,0,1.049.488c.873,0,1.742-.878,2.981-3.015a27.813,27.813,0,0,1,3.855-1.132,7.4,7.4,0,0,0,3.123.951,1.263,1.263,0,0,0,.961-2.118c-.678-.664-2.65-.473-3.591-.351ZM18.4,5.123,13.613.342A1.17,1.17,0,0,0,12.784,0h-.293V6.246h6.246v-.3A1.167,1.167,0,0,0,18.4,5.123ZM14.78,17.58c.2-.132-.122-.581-2.088-.439C14.5,17.912,14.78,17.58,14.78,17.58Z" fill="#f05445"/>
</svg>
