<svg xmlns="http://www.w3.org/2000/svg" width="81.568" height="77.657" viewBox="0 0 81.568 77.657">
  <g id="stethoscope" transform="translate(0 -11.508)">
    <g id="Group_19" data-name="Group 19" transform="translate(0 11.508)">
      <g id="Group_18" data-name="Group 18" transform="translate(0 0)">
        <path id="Path_6" data-name="Path 6" d="M81.469,55.023a9.516,9.516,0,0,0-8.059-8.059V44.492c0-6.819-5.184-12.371-11.555-12.371-6.188,0-11.369,5.383-11.555,12h.079l-.079.014V70.926c0,8.564-6.4,15.519-14.274,15.519S21.751,79.481,21.751,70.926V68.606c1.971,0,4.078-1.429,4.078-5.438V59.749c8.725-2.231,14.954-9.723,14.954-18.217V38.7H38.064L38.007,21a6.8,6.8,0,0,0-5.593-6.654,4.057,4.057,0,1,0-.092,2.772,4.078,4.078,0,0,1,2.962,3.891L35.345,38.7H32.627v2.874A10.81,10.81,0,0,1,24.8,51.715a12.361,12.361,0,0,1-7.477,0A10.8,10.8,0,0,1,9.516,41.572V38.7H5.438V21.025A4.078,4.078,0,0,1,8.456,17.1a4.1,4.1,0,1,0-.084-2.761,6.8,6.8,0,0,0-5.653,6.682V38.7H0v2.828c0,8.5,6.233,16,14.954,18.223v3.419c0,4.009,2.107,5.438,4.078,5.438v2.321c0,10.06,7.622,18.238,16.993,18.238s16.993-8.188,16.993-18.238V44.2c.136-5.159,4.1-9.357,8.836-9.357,4.872,0,8.836,4.328,8.836,9.652v2.467a9.516,9.516,0,1,0,10.778,8.059ZM28.548,16.947a1.359,1.359,0,1,1,1.359-1.359A1.36,1.36,0,0,1,28.548,16.947ZM12.235,14.228a1.359,1.359,0,1,1-1.359,1.359A1.36,1.36,0,0,1,12.235,14.228Zm-9.516,27.3v-.109H6.8v.155A13.507,13.507,0,0,0,16.5,54.3a15.127,15.127,0,0,0,9.133,0,13.51,13.51,0,0,0,9.712-12.728v-.155h2.719v.109c0,7.563-5.829,14.217-13.866,15.827a19.392,19.392,0,0,1-5.735.281,17.758,17.758,0,0,1-1.877-.284C8.548,55.743,2.719,49.088,2.719,41.526ZM19.032,65.887c-1.223,0-1.359-1.9-1.359-2.719V60.283c.109.014.22.019.33.03.136.015.272.026.408.038.643.057,1.291.1,1.945.1h.068c.653,0,1.3-.039,1.939-.1.136-.012.28-.023.42-.038.107-.012.219-.016.326-.03v2.885c0,.816-.136,2.719-1.359,2.719ZM72.05,63.168a6.8,6.8,0,1,1,6.8-6.8A6.8,6.8,0,0,1,72.05,63.168Z" transform="translate(0 -11.508)" fill="#0178b5"/>
      </g>
    </g>
    <g id="Group_21" data-name="Group 21" transform="translate(67.972 52.292)">
      <g id="Group_20" data-name="Group 20">
        <path id="Path_7" data-name="Path 7" d="M404.078,251.515a4.078,4.078,0,1,0,4.078,4.078A4.078,4.078,0,0,0,404.078,251.515Zm0,5.438a1.359,1.359,0,1,1,1.359-1.359A1.36,1.36,0,0,1,404.078,256.953Z" transform="translate(-400 -251.515)" fill="#0178b5"/>
      </g>
    </g>
  </g>
</svg>
